<svg width="120" height="154" viewBox="0 0 120 154" fill="none" xmlns="http://www.w3.org/2000/svg">
<path d="M108 4H12C7.58172 4 4 7.58172 4 12V142C4 146.418 7.58172 150 12 150H108C112.418 150 116 146.418 116 142V12C116 7.58172 112.418 4 108 4Z" fill="#F5F3EE" stroke="#0A0A0A" stroke-width="4"/>
<path d="M101.598 33.8799H18.3984C16.1893 33.8799 14.3984 35.6707 14.3984 37.8799V116.12C14.3984 118.329 16.1893 120.12 18.3984 120.12H101.598C103.808 120.12 105.598 118.329 105.598 116.12V37.8799C105.598 35.6707 103.808 33.8799 101.598 33.8799Z" fill="#34D17E"/>
<path d="M30 80.0798L52.8 104.72L90 49.2798" stroke="#0A0A0A" stroke-width="12" stroke-linecap="round" stroke-linejoin="round"/>
</svg>
