<svg width="520" height="174" viewBox="0 0 520 174" fill="none" xmlns="http://www.w3.org/2000/svg">
<g clip-path="url(#clip0_1390_2056)">
<path d="M108 4H12C7.58172 4 4 7.58172 4 12V162C4 166.418 7.58172 170 12 170H108C112.418 170 116 166.418 116 162V12C116 7.58172 112.418 4 108 4Z" fill="#F5F3EE" stroke="#0A0A0A" stroke-width="4"/>
<path d="M101.598 43.8799H18.3984C16.1893 43.8799 14.3984 45.6707 14.3984 47.8799V126.12C14.3984 128.329 16.1893 130.12 18.3984 130.12H101.598C103.808 130.12 105.598 128.329 105.598 126.12V47.8799C105.598 45.6707 103.808 43.8799 101.598 43.8799Z" fill="#34D17E"/>
<path d="M30 90.0798L52.8 114.72L90 59.2798" stroke="#0A0A0A" stroke-width="12" stroke-linecap="round" stroke-linejoin="round"/>
<path d="M148.582 25V22.9492L150.41 22.5977V10.5742H147.305L147.117 12.6133H144.527V7.9375H159.75V12.6133H157.148L156.961 10.5742H153.832V22.5977L155.672 22.9492V25H148.582ZM160.84 25V22.9492L162.492 22.5977V9.13281L160.664 8.78125V6.71875H165.902V13.9375C166.301 13.3516 166.793 12.8984 167.379 12.5781C167.973 12.25 168.645 12.0859 169.395 12.0859C170.668 12.0859 171.676 12.5117 172.418 13.3633C173.168 14.207 173.543 15.5156 173.543 17.2891V22.5977L175.184 22.9492V25H168.645V22.9492L170.121 22.5977V17.2656C170.121 16.3516 169.949 15.7031 169.605 15.3203C169.262 14.9375 168.758 14.7461 168.094 14.7461C167.633 14.7461 167.211 14.8438 166.828 15.0391C166.453 15.2266 166.145 15.5039 165.902 15.8711V22.5977L167.379 22.9492V25H160.84ZM182.215 25.2461C181.004 25.2461 179.945 24.9805 179.039 24.4492C178.133 23.9102 177.43 23.1719 176.93 22.2344C176.438 21.2969 176.191 20.2266 176.191 19.0234V18.5547C176.191 17.2969 176.426 16.1836 176.895 15.2148C177.363 14.2383 178.023 13.4727 178.875 12.918C179.734 12.3633 180.746 12.0859 181.91 12.0859C183.059 12.0859 184.023 12.3125 184.805 12.7656C185.586 13.2188 186.18 13.8711 186.586 14.7227C186.992 15.5742 187.195 16.6055 187.195 17.8164V19.6797H179.742L179.719 19.75C179.766 20.3047 179.902 20.8008 180.129 21.2383C180.363 21.668 180.691 22.0078 181.113 22.2578C181.535 22.5 182.047 22.6211 182.648 22.6211C183.273 22.6211 183.855 22.543 184.395 22.3867C184.941 22.2227 185.473 21.9844 185.988 21.6719L186.914 23.7812C186.391 24.2031 185.73 24.5547 184.934 24.8359C184.145 25.1094 183.238 25.2461 182.215 25.2461ZM179.766 17.418H183.996V17.1133C183.996 16.5977 183.926 16.1562 183.785 15.7891C183.652 15.4141 183.434 15.125 183.129 14.9219C182.832 14.7188 182.445 14.6172 181.969 14.6172C181.516 14.6172 181.133 14.7383 180.82 14.9805C180.508 15.2148 180.262 15.5391 180.082 15.9531C179.91 16.3672 179.793 16.8359 179.73 17.3594L179.766 17.418Z" fill="#5C5C58"/>
<path d="M173.258 94.8203C167.737 94.8203 162.932 93.6745 158.844 91.3828C154.755 89.0651 151.591 85.7969 149.352 81.5781C147.138 77.3333 146.031 72.3203 146.031 66.5391V64.625C146.031 59.1042 147.099 54.2214 149.234 49.9766C151.396 45.7057 154.469 42.3594 158.453 39.9375C162.438 37.5156 167.177 36.3047 172.672 36.3047C176.526 36.3047 180.133 36.8516 183.492 37.9453C186.878 39.0391 189.898 40.7057 192.555 42.9453V56.6953H184.078L182.906 48.0625C182.047 47.4375 181.109 46.9036 180.094 46.4609C179.078 46.0182 177.971 45.6797 176.773 45.4453C175.602 45.2109 174.326 45.0938 172.945 45.0938C169.716 45.0938 166.943 45.888 164.625 47.4766C162.307 49.0651 160.523 51.3177 159.273 54.2344C158.049 57.125 157.438 60.5625 157.438 64.5469V66.5391C157.438 70.5234 158.089 73.974 159.391 76.8906C160.693 79.8073 162.542 82.0729 164.938 83.6875C167.333 85.276 170.172 86.0703 173.453 86.0703C175.094 86.0703 176.734 85.888 178.375 85.5234C180.042 85.1328 181.552 84.638 182.906 84.0391L184.078 76.0312H192.555V89.625C190.341 91.0833 187.581 92.3203 184.273 93.3359C180.966 94.3255 177.294 94.8203 173.258 94.8203ZM198.961 94V87.1641L204.43 85.9922V59.7812L198.375 58.6094V51.7344H215.055L215.484 56.9688L215.562 57.9062C216.604 55.6146 217.893 53.8828 219.43 52.7109C220.966 51.5391 222.802 50.9531 224.938 50.9531C225.615 50.9531 226.357 51.0182 227.164 51.1484C227.971 51.2526 228.688 51.3958 229.312 51.5781L228.102 62.0859L222.438 61.7734C220.823 61.6953 219.508 61.9688 218.492 62.5938C217.503 63.2188 216.617 64.1172 215.836 65.2891V85.9922L221.305 87.1641V94H198.961ZM252.164 94.8203C248.128 94.8203 244.599 93.9349 241.578 92.1641C238.557 90.3672 236.214 87.9062 234.547 84.7812C232.906 81.6562 232.086 78.0885 232.086 74.0781V72.5156C232.086 68.3229 232.867 64.612 234.43 61.3828C235.992 58.1276 238.193 55.5755 241.031 53.7266C243.896 51.8776 247.268 50.9531 251.148 50.9531C254.977 50.9531 258.193 51.7083 260.797 53.2188C263.401 54.7292 265.38 56.9036 266.734 59.7422C268.089 62.5807 268.766 66.0182 268.766 70.0547V76.2656H243.922L243.844 76.5C244 78.349 244.456 80.0026 245.211 81.4609C245.992 82.8932 247.086 84.026 248.492 84.8594C249.898 85.6667 251.604 86.0703 253.609 86.0703C255.693 86.0703 257.633 85.8099 259.43 85.2891C261.253 84.7422 263.023 83.9479 264.742 82.9062L267.828 89.9375C266.083 91.3438 263.883 92.5156 261.227 93.4531C258.596 94.3646 255.576 94.8203 252.164 94.8203ZM244 68.7266H258.102V67.7109C258.102 65.9922 257.867 64.5208 257.398 63.2969C256.956 62.0469 256.227 61.0833 255.211 60.4062C254.221 59.7292 252.932 59.3906 251.344 59.3906C249.833 59.3906 248.557 59.7943 247.516 60.6016C246.474 61.3828 245.654 62.4635 245.055 63.8438C244.482 65.224 244.091 66.7865 243.883 68.5312L244 68.7266ZM288.258 94.8203C284.065 94.8203 280.732 93.7005 278.258 91.4609C275.784 89.1953 274.547 86.1224 274.547 82.2422C274.547 78.2578 276.161 75.0286 279.391 72.5547C282.62 70.0547 287.346 68.8047 293.57 68.8047H299.156V65.6797C299.156 63.6484 298.557 62.0078 297.359 60.7578C296.188 59.4818 294.417 58.8438 292.047 58.8438C290.823 58.8438 289.729 59 288.766 59.3125C287.802 59.599 286.917 60.0156 286.109 60.5625L285.211 66.1484H277.008L276.852 55.1719C279.065 53.9219 281.461 52.9062 284.039 52.125C286.617 51.3438 289.495 50.9531 292.672 50.9531C298.193 50.9531 302.555 52.2422 305.758 54.8203C308.961 57.3724 310.562 61.0312 310.562 65.7969V83.2188C310.562 83.7917 310.562 84.3646 310.562 84.9375C310.589 85.4844 310.641 86.0182 310.719 86.5391L315.133 87.1641V94H300.992C300.706 93.2708 300.419 92.4896 300.133 91.6562C299.846 90.8229 299.638 89.9896 299.508 89.1562C298.154 90.875 296.552 92.2552 294.703 93.2969C292.88 94.3125 290.732 94.8203 288.258 94.8203ZM291.305 86.3828C292.893 86.3828 294.404 86.0312 295.836 85.3281C297.268 84.599 298.375 83.6484 299.156 82.4766V75.7969H293.531C291.031 75.7969 289.13 76.3698 287.828 77.5156C286.552 78.6615 285.914 80.0417 285.914 81.6562C285.914 83.1667 286.383 84.3385 287.32 85.1719C288.284 85.9792 289.612 86.3828 291.305 86.3828ZM334.391 94.8203C330.458 94.8203 327.424 93.7396 325.289 91.5781C323.18 89.4167 322.125 85.9922 322.125 81.3047V59.7422H316.305V51.7344H322.125V41.3828H333.492V51.7344H341.266V59.7422H333.492V81.2656C333.492 82.9062 333.831 84.0781 334.508 84.7812C335.211 85.4844 336.161 85.8359 337.359 85.8359C338.01 85.8359 338.688 85.7969 339.391 85.7188C340.12 85.6146 340.745 85.5104 341.266 85.4062L342.242 93.6484C341.07 93.987 339.794 94.2604 338.414 94.4688C337.06 94.7031 335.719 94.8203 334.391 94.8203ZM347.125 94V87.1641L352.633 85.9922V59.7812L346.539 58.6094V51.7344H364.039V85.9922L369.508 87.1641V94H347.125ZM352.242 42.7891V33.0625H364.039V42.7891H352.242ZM389.078 94L376.305 59.3125L371.734 58.6094V51.7344H392.242V58.5703L387.789 59.3516L394.156 78.5312L395.133 81.8125H395.367L396.461 78.5312L403.453 59.3906L398.258 58.5703V51.7344H418.727V58.6094L414.039 59.3906L400.68 94H389.078ZM441.461 94.8203C437.424 94.8203 433.896 93.9349 430.875 92.1641C427.854 90.3672 425.51 87.9062 423.844 84.7812C422.203 81.6562 421.383 78.0885 421.383 74.0781V72.5156C421.383 68.3229 422.164 64.612 423.727 61.3828C425.289 58.1276 427.49 55.5755 430.328 53.7266C433.193 51.8776 436.565 50.9531 440.445 50.9531C444.273 50.9531 447.49 51.7083 450.094 53.2188C452.698 54.7292 454.677 56.9036 456.031 59.7422C457.385 62.5807 458.062 66.0182 458.062 70.0547V76.2656H433.219L433.141 76.5C433.297 78.349 433.753 80.0026 434.508 81.4609C435.289 82.8932 436.383 84.026 437.789 84.8594C439.195 85.6667 440.901 86.0703 442.906 86.0703C444.99 86.0703 446.93 85.8099 448.727 85.2891C450.549 84.7422 452.32 83.9479 454.039 82.9062L457.125 89.9375C455.38 91.3438 453.18 92.5156 450.523 93.4531C447.893 94.3646 444.872 94.8203 441.461 94.8203ZM433.297 68.7266H447.398V67.7109C447.398 65.9922 447.164 64.5208 446.695 63.2969C446.253 62.0469 445.523 61.0833 444.508 60.4062C443.518 59.7292 442.229 59.3906 440.641 59.3906C439.13 59.3906 437.854 59.7943 436.812 60.6016C435.771 61.3828 434.951 62.4635 434.352 63.8438C433.779 65.224 433.388 66.7865 433.18 68.5312L433.297 68.7266Z" fill="#0A0A0A"/>
<path d="M146.188 170V163.164L152.242 161.992V121.172L146.188 120V113.125H173.141C177.516 113.125 181.266 113.802 184.391 115.156C187.516 116.51 189.911 118.451 191.578 120.977C193.271 123.503 194.117 126.536 194.117 130.078C194.117 133.411 193.284 136.393 191.617 139.023C189.951 141.654 187.633 143.724 184.664 145.234C181.695 146.745 178.271 147.513 174.391 147.539H163.648V161.992L169.742 163.164V170H146.188ZM182.789 170L173.219 145.43L183.492 142.891L191.773 162.031L196.617 163.164V170H182.789ZM163.648 138.75H172.945C176.227 138.75 178.674 138.06 180.289 136.68C181.93 135.273 182.75 133.242 182.75 130.586C182.75 127.956 181.943 125.859 180.328 124.297C178.714 122.708 176.318 121.914 173.141 121.914H163.648V138.75ZM221.695 170.82C217.659 170.82 214.13 169.935 211.109 168.164C208.089 166.367 205.745 163.906 204.078 160.781C202.438 157.656 201.617 154.089 201.617 150.078V148.516C201.617 144.323 202.398 140.612 203.961 137.383C205.523 134.128 207.724 131.576 210.562 129.727C213.427 127.878 216.799 126.953 220.68 126.953C224.508 126.953 227.724 127.708 230.328 129.219C232.932 130.729 234.911 132.904 236.266 135.742C237.62 138.581 238.297 142.018 238.297 146.055V152.266H213.453L213.375 152.5C213.531 154.349 213.987 156.003 214.742 157.461C215.523 158.893 216.617 160.026 218.023 160.859C219.43 161.667 221.135 162.07 223.141 162.07C225.224 162.07 227.164 161.81 228.961 161.289C230.784 160.742 232.555 159.948 234.273 158.906L237.359 165.938C235.615 167.344 233.414 168.516 230.758 169.453C228.128 170.365 225.107 170.82 221.695 170.82ZM213.531 144.727H227.633V143.711C227.633 141.992 227.398 140.521 226.93 139.297C226.487 138.047 225.758 137.083 224.742 136.406C223.753 135.729 222.464 135.391 220.875 135.391C219.365 135.391 218.089 135.794 217.047 136.602C216.005 137.383 215.185 138.464 214.586 139.844C214.013 141.224 213.622 142.786 213.414 144.531L213.531 144.727ZM258.297 170L245.523 135.312L240.953 134.609V127.734H261.461V134.57L257.008 135.352L263.375 154.531L264.352 157.812H264.586L265.68 154.531L272.672 135.391L267.477 134.57V127.734H287.945V134.609L283.258 135.391L269.898 170H258.297ZM290.953 170V163.164L296.461 161.992V135.781L290.367 134.609V127.734H307.867V161.992L313.336 163.164V170H290.953ZM296.07 118.789V109.062H307.867V118.789H296.07ZM337.398 170.82C333.362 170.82 329.833 169.935 326.812 168.164C323.792 166.367 321.448 163.906 319.781 160.781C318.141 157.656 317.32 154.089 317.32 150.078V148.516C317.32 144.323 318.102 140.612 319.664 137.383C321.227 134.128 323.427 131.576 326.266 129.727C329.13 127.878 332.503 126.953 336.383 126.953C340.211 126.953 343.427 127.708 346.031 129.219C348.635 130.729 350.615 132.904 351.969 135.742C353.323 138.581 354 142.018 354 146.055V152.266H329.156L329.078 152.5C329.234 154.349 329.69 156.003 330.445 157.461C331.227 158.893 332.32 160.026 333.727 160.859C335.133 161.667 336.839 162.07 338.844 162.07C340.927 162.07 342.867 161.81 344.664 161.289C346.487 160.742 348.258 159.948 349.977 158.906L353.062 165.938C351.318 167.344 349.117 168.516 346.461 169.453C343.831 170.365 340.81 170.82 337.398 170.82ZM329.234 144.727H343.336V143.711C343.336 141.992 343.102 140.521 342.633 139.297C342.19 138.047 341.461 137.083 340.445 136.406C339.456 135.729 338.167 135.391 336.578 135.391C335.068 135.391 333.792 135.794 332.75 136.602C331.708 137.383 330.888 138.464 330.289 139.844C329.716 141.224 329.326 142.786 329.117 144.531L329.234 144.727ZM373.102 170L363.258 135.547L358.102 134.609V127.734H378.531V134.57L374.078 135.43L377.984 151.875L378.766 155.117H379L380.055 151.875L388.727 127.734H396.383L404.781 152.188L405.875 155.625H406.109L407.125 152.188L411.734 135.469L406.812 134.57V127.734H426.812V134.609L421.891 135.547L411.148 170H401.539L393.805 149.062L392.438 144.414H392.203L390.836 149.102L383.219 170H373.102Z" fill="#0A0A0A"/>
</g>
<defs>
<clipPath id="clip0_1390_2056">
<rect width="520" height="174" fill="white"/>
</clipPath>
</defs>
</svg>
